<?xml version="1.0" encoding="UTF-8"?><svg xmlns="http://www.w3.org/2000/svg" viewBox="0 0 50 50"><defs><style>.j{fill:#fff;}</style></defs><g id="a"/><g id="b"><g id="c"><g id="d"><g id="e"><g id="f"><g id="g"><g id="h"><g id="i"><path class="j" d="M0,0V50H50V0H0ZM27.2,39c0,4.85-2.85,7.1-7,7.1-3.75,0-5.95-1.95-7.05-4.3l3.85-2.3c.75,1.3,1.4,2.4,3,2.4s2.5-.6,2.5-2.95V22.95h4.7v16.05Zm11.1,7.1c-4.35,0-7.2-2.1-8.55-4.8l3.85-2.2c1,1.65,2.3,2.85,4.65,2.85,1.95,0,3.2-1,3.2-2.3,0-1.6-1.25-2.2-3.4-3.1l-1.15-.5c-3.4-1.45-5.65-3.25-5.65-7.1,0-3.5,2.7-6.2,6.9-6.2,3,0,5.15,1.05,6.7,3.75l-3.65,2.35c-.8-1.45-1.7-2-3-2s-2.25,.9-2.25,2c0,1.4,.9,2,2.9,2.85l1.15,.5c4,1.7,6.25,3.45,6.25,7.4-.15,4.15-3.45,6.5-7.95,6.5Z"/></g></g></g></g></g></g></g></g></svg>